<svg width="412" height="506" viewBox="0 0 412 506" fill="none" xmlns="http://www.w3.org/2000/svg">
<mask id="mask0_647525_1337" style="mask-type:luminance" maskUnits="userSpaceOnUse" x="4" y="0" width="118" height="152">
<path d="M121.198 24.3861L6.53333 0.571045L4.64816 127.969L119.313 151.784L121.198 24.3861Z" fill="white"/>
</mask>
<g mask="url(#mask0_647525_1337)">
<path d="M26.8386 4.7883L100.893 20.1689C103.56 20.72 106.193 21.8652 108.64 23.5388C111.088 25.2125 113.302 27.3819 115.156 29.9228C117.01 32.4637 118.469 35.3263 119.447 38.3466C120.425 41.367 120.903 44.4858 120.856 47.5247L119.655 128.646C119.613 131.686 119.045 134.587 117.984 137.184C116.923 139.781 115.389 142.022 113.472 143.78C111.554 145.537 109.289 146.776 106.807 147.426C104.326 148.076 101.675 148.124 99.0078 147.567L24.9534 132.187C22.2862 131.635 19.6534 130.491 17.2059 128.817C14.7584 127.143 12.5442 124.973 10.69 122.433C8.8358 119.892 7.37799 117.029 6.40001 114.009C5.42202 110.989 4.94307 107.87 4.99056 104.831L6.19094 23.7096C6.2334 20.6697 6.80144 17.7683 7.86254 15.1714C8.92365 12.5746 10.457 10.3333 12.3748 8.57582C14.2926 6.81837 16.5573 5.57921 19.0391 4.9293C21.521 4.27939 24.1714 4.23148 26.8386 4.7883Z" fill="#000B1D"/>
<path d="M50.3748 114.53C56.9713 115.9 62.4092 110.917 62.5204 103.4L62.7218 89.7886L50.7776 87.3079C44.1809 85.9378 38.7431 90.921 38.6319 98.4381C38.5207 105.955 43.7781 113.16 50.3748 114.53Z" fill="#0ACF83"/>
<path d="M39.0346 71.2164C39.1458 63.6994 44.5837 58.7161 51.1803 60.0862L63.1245 62.5669L62.7217 89.7888L50.7775 87.308C44.1808 85.938 38.9234 78.7334 39.0346 71.2164Z" fill="#A259FF"/>
<path d="M39.4374 43.9945C39.5487 36.4774 44.9865 31.4942 51.5831 32.8643L63.5274 35.345L63.1245 62.5669L51.1803 60.0861C44.5837 58.7161 39.3262 51.5116 39.4374 43.9945Z" fill="#F24E1E"/>
<path d="M63.5274 35.345L75.4717 37.8257C82.0682 39.1958 87.3257 46.4003 87.2145 53.9174C87.1033 61.4345 81.6654 66.4176 75.0688 65.0475L63.1246 62.5668L63.5274 35.345Z" fill="#FF7262"/>
<path d="M86.8117 81.1393C86.7004 88.6563 81.2626 93.6395 74.666 92.2695C68.0694 90.8994 62.8119 83.6949 62.9232 76.1778C63.0344 68.6608 68.4723 63.6776 75.0688 65.0476C81.6654 66.4177 86.9229 73.6222 86.8117 81.1393Z" fill="#1ABCFE"/>
</g>
<mask id="mask1_647525_1337" style="mask-type:luminance" maskUnits="userSpaceOnUse" x="2" y="149" width="117" height="152">
<path d="M118.991 173.562L4.32587 149.747L2.4407 277.145L117.106 300.96L118.991 173.562Z" fill="white"/>
</mask>
<g mask="url(#mask1_647525_1337)">
<path d="M24.6311 153.964L98.6855 169.344C101.353 169.896 103.986 171.041 106.433 172.714C108.88 174.388 111.095 176.557 112.949 179.098C114.803 181.639 116.261 184.502 117.239 187.522C118.217 190.543 118.696 193.661 118.648 196.7L117.448 277.821C117.405 280.861 116.838 283.763 115.777 286.359C114.715 288.956 113.182 291.197 111.264 292.955C109.346 294.712 107.082 295.952 104.6 296.602C102.118 297.252 99.4677 297.299 96.8003 296.743L22.7459 281.362C20.0787 280.811 17.4459 279.666 14.9984 277.992C12.551 276.319 10.3368 274.149 8.48254 271.608C6.62835 269.067 5.17053 266.205 4.19255 263.184C3.21456 260.164 2.73561 257.045 2.7831 254.006L3.98348 172.885C4.02595 169.845 4.59398 166.944 5.65508 164.347C6.71619 161.75 8.24953 159.509 10.1673 157.751C12.0852 155.994 14.3498 154.755 16.8317 154.105C19.3135 153.455 21.9639 153.407 24.6311 153.964Z" fill="#330000"/>
<path d="M58.7594 237.726L40.9864 234.034L37.166 246.075C37.122 246.299 37.0033 246.483 36.8332 246.589C36.6632 246.695 36.4541 246.716 36.247 246.648L27.2649 244.783C26.7393 244.674 26.6008 244.317 26.7538 243.694L42.8849 196.419C43.0363 195.905 43.1884 195.336 43.3892 194.722C43.5988 193.595 43.7123 192.43 43.7282 191.243C43.7159 191.103 43.7494 190.973 43.8219 190.876C43.8944 190.78 44.0007 190.725 44.1193 190.723L56.4936 193.293C56.8758 193.373 57.0645 193.576 57.1082 193.858L73.717 253.557C73.8515 254.185 73.7042 254.428 73.2264 254.329L63.241 252.255C63.0721 252.238 62.9032 252.153 62.7653 252.014C62.6269 251.876 62.5281 251.693 62.4854 251.497L58.7594 237.726ZM43.921 223.558L56.0564 226.078C55.7866 224.875 55.4245 223.435 55.0155 221.93C54.6065 220.425 54.2006 218.703 53.7948 216.98C53.389 215.257 52.9362 213.47 52.4834 211.683C52.0306 209.897 51.624 208.228 51.2651 206.57C50.9063 204.912 50.592 203.481 50.2769 202.105L50.1813 202.085C49.7168 204.369 49.1399 206.601 48.453 208.771C47.6976 211.236 46.9407 213.809 46.136 216.372C45.426 219.01 44.6715 221.42 43.921 223.558Z" fill="#FF9A00"/>
<path d="M84.831 208.517C84.0466 208.374 83.2688 208.053 82.5436 207.574C81.8184 207.096 81.1601 206.468 80.607 205.728C79.5326 204.137 78.9763 202.218 79.0567 200.382C79.0418 199.476 79.1936 198.608 79.5022 197.835C79.8113 197.062 80.2696 196.4 80.8484 195.894C82.0152 194.895 83.5489 194.529 85.1287 194.871C86.992 195.258 88.4157 196.209 89.4482 197.68C90.487 199.22 91.0269 201.075 90.9532 202.853C90.9687 203.779 90.8223 204.668 90.5224 205.469C90.2221 206.27 89.7752 206.965 89.2069 207.514C88.6344 208.051 87.9475 208.418 87.1925 208.591C86.4375 208.764 85.6323 208.739 84.831 208.517ZM78.7806 254.663L79.401 212.741C79.409 212.197 79.6034 212.019 80.0334 212.108L89.4932 214.073C89.9232 214.162 90.1103 214.474 90.103 214.964L89.4827 256.885C89.4738 257.484 89.2787 257.717 88.8487 257.628L79.4844 255.683C79.3839 255.671 79.2829 255.634 79.1899 255.573C79.0964 255.512 79.0127 255.43 78.9452 255.331C78.8772 255.233 78.8275 255.122 78.799 255.007C78.7706 254.891 78.7642 254.773 78.7806 254.663Z" fill="#FF9A00"/>
</g>
<mask id="mask2_647525_1337" style="mask-type:luminance" maskUnits="userSpaceOnUse" x="0" y="298" width="117" height="153">
<path d="M116.783 322.737L2.11847 298.922L0.233302 426.32L114.898 450.135L116.783 322.737Z" fill="white"/>
</mask>
<g mask="url(#mask2_647525_1337)">
<path d="M22.4237 303.139L96.4781 318.52C99.1455 319.071 101.778 320.216 104.225 321.89C106.673 323.564 108.887 325.733 110.742 328.274C112.596 330.815 114.054 333.677 115.032 336.698C116.01 339.718 116.488 342.837 116.441 345.876L115.241 426.997C115.198 430.037 114.63 432.938 113.569 435.535C112.508 438.132 110.974 440.373 109.057 442.131C107.139 443.888 104.874 445.127 102.392 445.777C99.9107 446.427 97.2603 446.475 94.5929 445.918L20.5385 430.538C17.8713 429.986 15.2385 428.842 12.7911 427.168C10.3436 425.494 8.1294 423.324 6.27515 420.784C4.42095 418.243 2.96313 415.38 1.98515 412.36C1.00716 409.34 0.52821 406.221 0.575702 403.182L1.77609 322.061C1.81855 319.021 2.38658 316.119 3.44769 313.522C4.50879 310.926 6.04213 308.684 7.95994 306.927C9.87779 305.169 12.1424 303.93 14.6243 303.28C17.1061 302.63 19.7565 302.583 22.4237 303.139Z" fill="#49021F"/>
<path d="M43.2871 340.895L42.4605 396.754C42.4516 397.353 42.2087 397.575 41.7787 397.486L32.4144 395.541C31.9844 395.452 31.7974 395.14 31.8062 394.541L32.6328 338.682C32.64 338.192 32.8821 338.024 33.3121 338.113L42.6287 340.048C42.7013 340.05 42.7752 340.069 42.846 340.105C42.9167 340.14 42.9828 340.191 43.0402 340.254C43.0975 340.317 43.1449 340.391 43.1796 340.471C43.2143 340.552 43.2354 340.637 43.2417 340.721C43.2594 340.747 43.2727 340.775 43.2806 340.805C43.2884 340.835 43.2906 340.866 43.2871 340.895Z" fill="#FF3366"/>
<path d="M69.9543 404.211C66.4116 403.542 62.9148 401.976 59.7185 399.628C56.7455 397.409 54.272 394.309 52.6137 390.725C50.8951 387.037 50.0963 382.721 50.1697 377.766C50.181 373.727 51.1475 369.946 52.9674 366.824C54.833 363.655 57.502 361.283 60.6888 359.963C64.0646 358.535 68.0932 358.334 72.8231 359.316C73.1581 359.381 73.4932 359.469 73.8256 359.579C74.2548 359.723 74.7326 359.822 75.3051 359.995L75.5597 342.791C75.5653 342.41 75.7119 342.222 76.0463 342.292L85.745 344.306C85.8523 344.312 85.9603 344.364 86.0481 344.453C86.1355 344.542 86.196 344.661 86.2172 344.786L85.4486 396.726C85.4341 397.706 85.4658 398.804 85.4958 400.012C85.5259 401.22 85.6061 402.274 85.6402 403.209C85.6475 403.396 85.6042 403.57 85.5164 403.709C85.4285 403.847 85.3001 403.942 85.1495 403.981C82.6293 404.66 80.0043 404.994 77.3232 404.977C74.8878 404.974 72.422 404.718 69.9543 404.211ZM74.7976 394.295L75.152 370.34C74.7286 370.134 74.2989 369.954 73.8661 369.8C73.3413 369.636 72.8166 369.472 72.2911 369.363C70.4185 368.95 68.5605 369.051 66.8713 369.658C65.225 370.246 63.8066 371.342 62.7506 372.843C61.6738 374.367 61.1136 376.599 61.0717 379.43C61.0018 381.332 61.2494 383.292 61.8009 385.206C62.2414 386.753 62.9558 388.225 63.8937 389.518C64.8 390.711 65.9007 391.688 67.1103 392.371C68.3832 393.114 69.7183 393.631 71.0653 393.902C71.782 394.051 72.4516 394.135 73.0736 394.21C73.6566 394.382 74.2447 394.412 74.7976 394.295Z" fill="#FF3366"/>
</g>
<mask id="mask3_647525_1337" style="mask-type:luminance" maskUnits="userSpaceOnUse" x="136" y="177" width="117" height="152">
<path d="M252.766 201.346L138.102 177.531L136.216 304.929L250.881 328.744L252.766 201.346Z" fill="white"/>
</mask>
<g mask="url(#mask3_647525_1337)">
<path d="M158.407 181.748L232.461 197.128C235.129 197.679 237.761 198.825 240.209 200.498C242.656 202.172 244.87 204.341 246.725 206.882C248.579 209.423 250.037 212.286 251.015 215.306C251.993 218.326 252.471 221.445 252.424 224.484L251.224 305.605C251.181 308.645 250.613 311.547 249.552 314.143C248.491 316.74 246.957 318.981 245.04 320.739C243.122 322.496 240.857 323.736 238.375 324.386C235.894 325.036 233.243 325.083 230.576 324.527L156.522 309.146C153.854 308.595 151.222 307.45 148.774 305.776C146.327 304.103 144.113 301.933 142.258 299.392C140.404 296.851 138.946 293.989 137.968 290.968C136.99 287.948 136.511 284.829 136.559 281.79L137.759 200.669C137.802 197.629 138.37 194.728 139.431 192.131C140.492 189.534 142.025 187.293 143.943 185.535C145.861 183.778 148.126 182.539 150.607 181.889C153.089 181.239 155.74 181.191 158.407 181.748Z" fill="#001E36"/>
<path d="M196.968 280.083L166.678 273.792C166.152 273.683 165.918 273.307 165.928 272.654L166.751 217.012C166.742 216.92 166.748 216.83 166.77 216.747C166.792 216.664 166.83 216.59 166.88 216.529C166.93 216.468 166.992 216.422 167.062 216.393C167.132 216.364 167.209 216.352 167.288 216.359L176.843 218.344C176.903 218.344 176.964 218.358 177.023 218.386C177.082 218.413 177.138 218.454 177.186 218.505C177.235 218.556 177.276 218.616 177.306 218.682C177.336 218.748 177.355 218.818 177.362 218.888L176.683 264.784L198.756 269.369C199.234 269.468 199.373 269.77 199.27 270.24L197.745 279.426C197.735 279.549 197.704 279.665 197.653 279.767C197.602 279.869 197.533 279.955 197.448 280.019C197.307 280.101 197.139 280.123 196.968 280.083Z" fill="#31A8FF"/>
<path d="M205.257 238.116L213.618 239.853C213.844 239.906 214.062 240.039 214.24 240.233C214.417 240.427 214.547 240.671 214.608 240.932C214.8 241.358 214.924 241.811 214.972 242.264C215.06 242.828 215.146 243.447 215.186 244.001C215.226 244.555 215.263 245.273 215.253 245.981C216.715 244.37 218.472 243.143 220.434 242.36C222.637 241.465 225.101 241.3 227.582 241.879C227.661 241.883 227.74 241.906 227.817 241.945C227.893 241.985 227.964 242.041 228.025 242.11C228.087 242.178 228.138 242.259 228.175 242.346C228.212 242.433 228.235 242.525 228.242 242.617L228.081 253.451C228.075 253.887 227.834 254 227.308 253.891C224.215 253.037 221.109 253.029 218.251 253.867C217.276 254.138 216.39 254.64 215.641 255.345L215.23 283.112C215.222 283.656 215.028 283.834 214.598 283.745L205.281 281.81C205.193 281.809 205.103 281.786 205.016 281.744C204.93 281.702 204.849 281.641 204.778 281.565C204.708 281.489 204.649 281.4 204.605 281.302C204.562 281.205 204.536 281.101 204.527 280.998L204.976 250.618C204.995 249.312 205.016 247.95 204.989 246.525C204.962 245.1 204.983 243.684 204.956 242.259C204.926 241.051 204.848 239.833 204.723 238.606C204.711 238.539 204.711 238.472 204.721 238.409C204.732 238.346 204.754 238.288 204.786 238.239C204.818 238.19 204.859 238.15 204.907 238.122C204.955 238.094 205.009 238.079 205.066 238.076C205.114 238.032 205.162 238.042 205.257 238.116Z" fill="#31A8FF"/>
</g>
<mask id="mask4_647525_1337" style="mask-type:luminance" maskUnits="userSpaceOnUse" x="134" y="326" width="117" height="152">
<path d="M250.559 350.521L135.894 326.706L134.009 454.104L248.674 477.919L250.559 350.521Z" fill="white"/>
</mask>
<g mask="url(#mask4_647525_1337)">
<path d="M142.095 335.12C143.97 333.403 146.18 332.194 148.598 331.561C151.017 330.928 153.597 330.881 156.192 331.423L156.192 331.423L230.246 346.804L230.247 346.804C232.842 347.34 235.405 348.454 237.789 350.085L238.001 349.674L237.789 350.085C240.174 351.716 242.335 353.832 244.148 356.316C245.96 358.799 247.388 361.601 248.346 364.56C249.304 367.52 249.774 370.577 249.727 373.558L249.727 373.558L248.527 454.679L248.527 454.68C248.485 457.661 247.928 460.506 246.888 463.05L247.345 463.319L246.888 463.05C245.849 465.594 244.347 467.787 242.473 469.505C240.598 471.223 238.388 472.432 235.969 473.065L236.168 473.561L235.969 473.065C233.552 473.698 230.972 473.744 228.377 473.202L228.376 473.202L154.322 457.822L154.321 457.821C151.726 457.285 149.163 456.171 146.779 454.54C144.394 452.91 142.233 450.793 140.42 448.31C138.608 445.826 137.181 443.025 136.222 440.065L135.761 440.144L136.222 440.065C135.264 437.106 134.794 434.048 134.841 431.068L134.841 431.067L136.041 349.946L136.041 349.946C136.083 346.965 136.64 344.12 137.68 341.576C138.72 339.031 140.221 336.838 142.095 335.12ZM142.095 335.12L141.736 334.711L142.095 335.12ZM156.199 330.923L230.254 346.304L156.199 330.923Z" fill="white" stroke="#C1C1C1"/>
<path d="M178.092 390.812L178.102 390.099C178.129 388.292 179.383 387.048 180.972 387.254L192.547 388.747L208.126 419.744L208.485 395.454L204.379 393.954L204.384 393.615C204.411 391.787 205.693 390.539 207.302 390.776L217.831 392.328L217.805 394.107C217.793 394.943 217.254 395.548 216.527 395.541L213.988 395.519L213.406 434.856L210.21 435.481C207.54 436.002 204.602 434.24 203.123 431.229L188.008 400.473L187.619 426.751L192.381 428.818L192.307 429.325C192.074 430.914 190.857 431.899 189.406 431.674L177.514 429.828C177.383 428.04 178.525 426.703 180.072 426.833L181.637 426.964L182.156 391.926L178.092 390.812Z" fill="black"/>
<path fill-rule="evenodd" clip-rule="evenodd" d="M206.907 359.502L159.264 353.438C156.411 353.075 154.161 355.31 154.113 358.557L153.308 412.967C153.263 416.017 154.112 419.167 155.722 421.919L165.76 439.076C167.383 441.85 169.974 443.73 172.678 444.095L225.549 451.243C228.259 451.609 230.404 449.495 230.45 446.413L231.365 384.554C231.393 382.647 230.601 380.691 229.242 379.312L212.719 362.551C211.035 360.843 208.983 359.767 206.907 359.502ZM161.52 360.946C160.867 360.233 161.2 359.098 162.032 359.201L207.15 364.76C208.588 364.937 210.007 365.698 211.154 366.907L220.084 376.315C220.423 376.672 220.253 377.256 219.827 377.195L172.062 370.334C170.617 370.127 169.199 369.332 168.065 368.094L161.52 360.946ZM169.682 379.434C169.709 377.612 170.984 376.367 172.587 376.597L223.089 383.845C224.651 384.07 225.944 385.754 225.918 387.53L225.125 441.093C225.098 442.912 223.828 444.157 222.228 443.932L172.044 436.873C170.305 436.628 168.864 434.755 168.893 432.778L169.682 379.434Z" fill="black"/>
</g>
<mask id="mask5_647525_1337" style="mask-type:luminance" maskUnits="userSpaceOnUse" x="267" y="354" width="118" height="152">
<path d="M384.335 378.306L269.67 354.491L267.785 481.889L382.449 505.704L384.335 378.306Z" fill="white"/>
</mask>
<g mask="url(#mask5_647525_1337)">
<path d="M275.871 362.905C277.745 361.187 279.956 359.979 282.374 359.346C284.792 358.712 287.372 358.666 289.967 359.208L289.968 359.208L364.022 374.588L364.023 374.589C366.618 375.125 369.181 376.239 371.565 377.87L371.777 377.458L371.565 377.87C373.95 379.501 376.111 381.617 377.923 384.1C379.736 386.584 381.163 389.385 382.121 392.345C383.08 395.304 383.549 398.362 383.503 401.342L383.503 401.343L382.302 482.464L382.302 482.464C382.261 485.446 381.704 488.29 380.664 490.834L381.12 491.104L380.664 490.834C379.624 493.379 378.123 495.572 376.248 497.29C374.374 499.007 372.163 500.216 369.745 500.849L369.944 501.346L369.745 500.849C367.327 501.483 364.747 501.529 362.152 500.987L362.152 500.987L288.097 485.606L288.097 485.606C285.502 485.07 282.939 483.956 280.554 482.325C278.169 480.694 276.008 478.578 274.196 476.094C272.384 473.611 270.956 470.81 269.998 467.85L269.537 467.928L269.998 467.85C269.04 464.891 268.57 461.833 268.617 458.852L268.617 458.852L269.817 377.731L269.817 377.731C269.859 374.749 270.416 371.905 271.455 369.36C272.495 366.816 273.996 364.623 275.871 362.905ZM275.871 362.905L275.511 362.496L275.871 362.905ZM289.975 358.708L364.029 374.089L289.975 358.708Z" fill="white" stroke="#C1C1C1"/>
<path d="M366.205 425.54L363.726 422.149L319.297 462.755L321.776 466.146L366.205 425.54Z" fill="url(#paint0_linear_647525_1337)"/>
<path d="M316.698 467.474C320.636 468.292 323.883 465.324 323.949 460.846C324.015 456.368 320.876 452.074 316.938 451.256C312.999 450.438 309.752 453.406 309.686 457.884C309.62 462.362 312.759 466.656 316.698 467.474Z" fill="url(#paint1_radial_647525_1337)"/>
<path d="M361.127 426.868C365.066 427.686 368.312 424.719 368.379 420.241C368.445 415.762 365.306 411.469 361.367 410.651C357.428 409.833 354.182 412.8 354.115 417.278C354.049 421.757 357.188 426.05 361.127 426.868Z" fill="url(#paint2_radial_647525_1337)"/>
<path d="M311.69 464.051L314.254 461.708L288.093 425.928L285.53 428.271L311.69 464.051Z" fill="url(#paint3_linear_647525_1337)"/>
<path d="M290.537 431.694C294.476 432.512 297.723 429.544 297.789 425.066C297.855 420.588 294.716 416.294 290.777 415.476C286.839 414.658 283.592 417.625 283.526 422.104C283.459 426.582 286.599 430.876 290.537 431.694Z" fill="url(#paint4_radial_647525_1337)"/>
<path d="M297.945 405.612L285.699 416.804C284.283 418.098 284.245 420.665 285.614 422.538L314.254 461.708C315.623 463.581 317.881 464.05 319.297 462.755L331.543 451.563C332.958 450.269 332.996 447.702 331.627 445.83L302.988 406.659C301.619 404.787 299.361 404.318 297.945 405.612Z" fill="#195ABD"/>
<path d="M366.374 414.073L354.534 397.878C353.165 396.006 350.907 395.537 349.491 396.831L302.498 439.78C301.082 441.074 301.044 443.641 302.413 445.513L314.254 461.708C315.623 463.58 317.881 464.049 319.297 462.755L366.29 419.806C367.706 418.512 367.744 415.945 366.374 414.073Z" fill="url(#paint5_linear_647525_1337)"/>
</g>
<mask id="mask6_647525_1337" style="mask-type:luminance" maskUnits="userSpaceOnUse" x="138" y="28" width="117" height="152">
<path d="M254.974 52.17L140.309 28.355L138.424 155.753L253.089 179.568L254.974 52.17Z" fill="white"/>
</mask>
<g mask="url(#mask6_647525_1337)">
<path d="M160.614 32.5722L234.669 47.9528C237.336 48.5039 239.969 49.6491 242.416 51.3227C244.864 52.9965 247.078 55.1658 248.932 57.7068C250.786 60.2476 252.244 63.1102 253.222 66.1306C254.2 69.1509 254.679 72.2697 254.631 75.3086L253.431 156.43C253.389 159.47 252.821 162.371 251.76 164.968C250.699 167.565 249.165 169.806 247.247 171.564C245.329 173.321 243.065 174.56 240.583 175.21C238.101 175.86 235.451 175.908 232.783 175.351L158.729 159.97C156.062 159.419 153.429 158.274 150.982 156.601C148.534 154.927 146.32 152.757 144.466 150.217C142.611 147.675 141.154 144.813 140.176 141.793C139.198 138.773 138.719 135.654 138.766 132.615L139.967 51.4936C140.009 48.4536 140.577 45.5522 141.638 42.9554C142.699 40.3585 144.233 38.1173 146.15 36.3598C148.068 34.6023 150.333 33.3631 152.815 32.7132C155.297 32.0633 157.947 32.0154 160.614 32.5722Z" fill="#001E36"/>
<path d="M164.787 123.056L165.616 67.033C165.621 66.6519 165.768 66.4639 166.102 66.5333C166.914 66.702 167.679 66.8608 168.779 67.0346C169.878 67.2083 171.12 67.4663 172.411 67.6798C173.702 67.8933 175.088 68.1811 176.569 68.4342C178.051 68.6874 179.485 68.9851 180.918 69.2828C184.836 70.0964 188.076 71.3156 190.735 73.0146C193.12 74.4409 195.284 76.4201 197.071 78.8087C198.584 80.8885 199.743 83.2523 200.467 85.7397C201.157 88.1588 201.493 90.6308 201.461 93.0456C201.392 97.7277 200.379 101.395 198.423 104.047C196.458 106.692 193.743 108.451 190.633 109.091C187.364 109.778 183.773 109.523 179.855 108.71C178.709 108.472 177.944 108.313 177.467 108.159C176.99 108.005 176.321 107.866 175.414 107.678L175.155 125.154C175.164 125.246 175.158 125.336 175.136 125.419C175.114 125.502 175.076 125.576 175.026 125.637C174.976 125.698 174.914 125.744 174.844 125.774C174.774 125.803 174.697 125.815 174.618 125.807L165.349 123.882C164.967 123.803 164.779 123.546 164.787 123.056ZM175.884 79.1049L175.614 97.398C176.282 97.5914 176.902 97.7748 177.475 97.8939L180.008 98.4198C181.873 98.8099 183.732 98.8639 185.516 98.5809C187.047 98.3871 188.423 97.6674 189.477 96.5091C190.5 95.3564 191.005 93.6045 191.041 91.209C191.111 89.517 190.755 87.7571 190.014 86.1353C189.238 84.5563 188.082 83.2258 186.715 82.3374C184.934 81.1644 183.02 80.3951 181.094 80.0776C179.851 79.8196 178.753 79.5914 177.844 79.4573C177.192 79.273 176.536 79.1551 175.884 79.1049Z" fill="#31A8FF"/>
<path d="M231.18 105.608C229.75 104.442 228.214 103.498 226.62 102.804C224.871 101.986 223.08 101.376 221.28 100.985C220.313 100.746 219.345 100.674 218.408 100.771C217.81 100.788 217.277 101.067 216.91 101.552C216.663 101.943 216.523 102.424 216.506 102.942C216.521 103.465 216.681 103.996 216.963 104.457C217.407 105.157 217.952 105.77 218.566 106.264C219.655 107.146 220.793 107.983 221.932 108.766C224.498 110.292 226.948 112.139 229.23 114.268C230.783 115.718 232.057 117.541 232.938 119.571C233.68 121.467 234.029 123.472 233.954 125.407C233.954 127.988 233.267 130.379 231.983 132.261C230.619 134.157 228.734 135.455 226.561 135.995C224.203 136.652 221.327 136.656 217.887 135.941C215.706 135.498 213.533 134.809 211.4 133.884C209.72 133.202 208.09 132.276 206.553 131.13C206.387 131 206.251 130.822 206.16 130.619C206.07 130.416 206.029 130.196 206.042 129.986L206.182 120.513C206.18 120.419 206.196 120.329 206.231 120.251C206.265 120.173 206.316 120.108 206.381 120.062C206.449 120.032 206.527 120.029 206.605 120.055C206.682 120.081 206.754 120.134 206.81 120.206C208.632 121.825 210.618 123.14 212.695 124.104C214.528 125.033 216.418 125.701 218.32 126.092C220.136 126.469 221.43 126.465 222.297 126.153C222.684 126.031 223.014 125.776 223.248 125.419C223.483 125.061 223.612 124.615 223.621 124.135C223.632 123.372 223.261 122.585 222.507 121.719C221.753 120.852 220.188 119.708 217.862 118.187C215.475 116.724 213.214 114.933 211.136 112.858C209.657 111.332 208.44 109.493 207.573 107.477C206.836 105.599 206.487 103.613 206.557 101.695C206.598 99.3734 207.193 97.2126 208.279 95.4447C209.525 93.5112 211.293 92.1337 213.369 91.4778C215.634 90.6376 218.462 90.6241 221.854 91.3287C223.837 91.7411 225.814 92.316 227.771 93.0491C229.178 93.5595 230.553 94.267 231.861 95.1547C232.07 95.283 232.239 95.495 232.332 95.7439C232.384 95.9679 232.413 96.1939 232.418 96.4171L232.287 105.291C232.286 105.397 232.263 105.497 232.22 105.583C232.177 105.669 232.115 105.739 232.04 105.786C231.76 105.842 231.456 105.779 231.18 105.608Z" fill="#31A8FF"/>
</g>
<mask id="mask7_647525_1337" style="mask-type:luminance" maskUnits="userSpaceOnUse" x="269" y="205" width="118" height="152">
<path d="M386.542 229.13L271.877 205.315L269.992 332.713L384.657 356.528L386.542 229.13Z" fill="white"/>
</mask>
<g mask="url(#mask7_647525_1337)">
<path d="M292.182 209.532L366.237 224.913C368.904 225.464 371.537 226.609 373.984 228.283C376.432 229.956 378.646 232.126 380.5 234.667C382.354 237.208 383.812 240.07 384.79 243.09C385.768 246.111 386.247 249.23 386.2 252.269L384.999 333.39C384.957 336.43 384.389 339.331 383.328 341.928C382.267 344.525 380.733 346.766 378.815 348.524C376.897 350.281 374.633 351.52 372.151 352.17C369.669 352.82 367.019 352.868 364.352 352.311L290.297 336.93C287.63 336.379 284.997 335.234 282.55 333.561C280.102 331.887 277.888 329.717 276.034 327.177C274.18 324.635 272.722 321.773 271.744 318.753C270.766 315.733 270.287 312.614 270.334 309.575L271.535 228.454C271.577 225.414 272.145 222.512 273.206 219.915C274.267 217.318 275.801 215.077 277.719 213.32C279.636 211.562 281.901 210.323 284.383 209.673C286.865 209.023 289.515 208.975 292.182 209.532Z" fill="#00005B"/>
<path d="M297.788 300.313L298.617 244.29C298.623 243.909 298.769 243.721 299.104 243.791C299.916 243.959 300.68 244.118 301.78 244.292C302.88 244.466 304.122 244.724 305.413 244.937C306.703 245.151 308.089 245.438 309.571 245.692C311.053 245.945 312.486 246.242 313.919 246.54C317.837 247.354 321.078 248.573 323.736 250.272C326.121 251.698 328.285 253.677 330.072 256.066C331.586 258.146 332.744 260.51 333.468 262.997C334.158 265.416 334.494 267.888 334.462 270.303C334.393 274.985 333.38 278.652 331.424 281.304C329.459 283.95 326.744 285.708 323.634 286.349C320.365 287.035 316.774 286.781 312.857 285.967C311.71 285.729 310.946 285.57 310.469 285.416C309.992 285.263 309.323 285.124 308.415 284.935L308.156 302.412C308.166 302.504 308.159 302.594 308.137 302.676C308.115 302.759 308.078 302.833 308.028 302.894C307.978 302.955 307.916 303.002 307.846 303.031C307.775 303.061 307.699 303.072 307.62 303.065L298.351 301.14C297.969 301.06 297.781 300.803 297.788 300.313ZM308.886 256.362L308.615 274.655C309.283 274.849 309.903 275.032 310.477 275.151L313.009 275.677C314.874 276.067 316.733 276.121 318.518 275.838C320.048 275.644 321.424 274.925 322.478 273.766C323.502 272.614 324.007 270.862 324.042 268.466C324.112 266.774 323.756 265.014 323.015 263.393C322.24 261.814 321.084 260.483 319.717 259.595C317.935 258.422 316.021 257.652 314.095 257.335C312.853 257.077 311.754 256.849 310.845 256.715C310.193 256.53 309.537 256.412 308.886 256.362Z" fill="#9999FF"/>
<path d="M341.232 266.248L349.593 267.984C349.819 268.038 350.037 268.171 350.215 268.365C350.392 268.558 350.521 268.803 350.583 269.064C350.722 269.532 350.812 270.01 350.85 270.485C350.937 271.049 351.024 271.668 351.064 272.222C351.103 272.776 351.141 273.494 351.13 274.202C352.593 272.591 354.35 271.364 356.312 270.581C358.553 269.637 361.065 269.425 363.605 269.966C363.684 269.971 363.764 269.993 363.84 270.033C363.916 270.072 363.987 270.128 364.049 270.197C364.11 270.266 364.161 270.346 364.198 270.433C364.235 270.52 364.258 270.613 364.265 270.704L364.105 281.538C364.098 281.974 363.857 282.088 363.332 281.979C361.599 281.554 359.863 281.377 358.164 281.451C356.779 281.489 355.426 281.703 354.129 282.088C353.197 282.371 352.358 282.884 351.662 283.596L351.251 311.362C351.243 311.907 351.049 312.085 350.619 311.996L341.207 310.041C341.119 310.039 341.028 310.017 340.942 309.975C340.855 309.933 340.774 309.872 340.704 309.796C340.633 309.72 340.575 309.631 340.531 309.533C340.488 309.435 340.461 309.332 340.452 309.229L340.902 278.849C340.921 277.542 340.941 276.181 340.914 274.756C340.887 273.33 340.908 271.915 340.882 270.489C340.9 269.237 340.822 268.02 340.745 266.748C340.733 266.681 340.733 266.614 340.744 266.551C340.755 266.488 340.777 266.43 340.809 266.381C340.841 266.332 340.882 266.292 340.93 266.264C340.978 266.236 341.032 266.221 341.089 266.218C341.089 266.164 341.185 266.184 341.232 266.248Z" fill="#9999FF"/>
</g>
<path d="M370.728 76.2114L292.107 59.8824C282.153 57.8152 273.952 65.1041 273.788 76.1627L272.496 163.514C272.332 174.573 280.268 185.213 290.221 187.281L368.842 203.61C378.796 205.677 386.997 198.388 387.161 187.329L388.453 99.9778C388.617 88.9192 380.681 78.2786 370.728 76.2114Z" fill="black"/>
<g filter="url(#filter0_dd_647525_1337)">
<path fill-rule="evenodd" clip-rule="evenodd" d="M345.095 175.183C346.233 175.916 347.541 176.156 348.707 175.779L363.806 170.9C365.392 170.387 366.42 168.829 366.448 166.891L367.25 112.708C367.279 110.771 366.304 108.797 364.742 107.63L349.879 96.5275C348.373 95.4024 346.594 95.2318 345.246 96.0288C345.053 96.1427 344.869 96.2762 344.696 96.4297L315.588 119.477L303.251 106.371C302.103 105.151 300.475 104.894 299.379 105.758L295.313 108.966C293.972 110.024 293.936 112.328 295.236 113.936L305.907 127.142L294.912 135.849C293.573 136.909 293.54 139.213 294.841 140.82L298.788 145.692C299.852 147.005 301.478 147.423 302.655 146.686L315.302 138.769L343.552 173.73C343.999 174.327 344.526 174.817 345.095 175.183ZM348.794 117.729L326.964 131.516L348.253 154.258L348.794 117.729Z" fill="black" fill-opacity="0.01"/>
</g>
<mask id="mask8_647525_1337" style="mask-type:luminance" maskUnits="userSpaceOnUse" x="293" y="95" width="75" height="81">
<path fill-rule="evenodd" clip-rule="evenodd" d="M345.095 175.183C346.233 175.916 347.541 176.156 348.707 175.779L363.806 170.9C365.392 170.387 366.42 168.829 366.448 166.891L367.25 112.708C367.279 110.771 366.304 108.797 364.742 107.63L349.879 96.5275C348.373 95.4024 346.594 95.2318 345.246 96.0288C345.053 96.1427 344.869 96.2762 344.696 96.4297L315.588 119.477L303.251 106.371C302.103 105.151 300.475 104.894 299.379 105.758L295.313 108.966C293.972 110.024 293.936 112.328 295.236 113.936L305.907 127.142L294.912 135.849C293.573 136.909 293.54 139.213 294.841 140.82L298.788 145.692C299.852 147.005 301.478 147.423 302.655 146.686L315.302 138.769L343.552 173.73C343.999 174.327 344.526 174.817 345.095 175.183ZM348.794 117.729L326.964 131.516L348.253 154.258L348.794 117.729Z" fill="white"/>
</mask>
<g mask="url(#mask8_647525_1337)">
<g filter="url(#filter1_dddd_647525_1337)">
<path d="M364.738 107.357L349.818 96.2162C348.091 94.9268 346.005 94.8862 344.616 96.1149L294.649 135.594C293.305 136.655 293.272 138.964 294.578 140.574L298.54 145.458C299.608 146.774 301.239 147.193 302.421 146.455L362.445 108.968C364.458 107.71 367.292 109.874 367.251 112.639L367.254 112.445C367.283 110.505 366.305 108.527 364.738 107.357Z" fill="#016BB3"/>
</g>
<g filter="url(#filter2_dddd_647525_1337)">
<path d="M363.798 170.87L348.641 175.764C346.887 176.33 344.812 175.507 343.468 173.711L294.972 113.782C293.667 112.17 293.703 109.862 295.049 108.802L299.13 105.589C300.23 104.723 301.864 104.982 303.017 106.205L361.566 168.32C363.531 170.403 366.411 169.426 366.452 166.662L366.449 166.855C366.42 168.795 365.39 170.356 363.798 170.87Z" fill="#0389E4"/>
</g>
<path d="M349.458 91.136L295.02 79.8296L293.735 166.662L348.173 177.969L349.458 91.136Z" fill="url(#paint6_linear_647525_1337)"/>
<g filter="url(#filter3_dd_647525_1337)">
<path d="M348.566 175.75C346.803 176.312 344.72 175.487 343.37 173.692C345.033 175.904 347.943 175.186 347.982 172.556L349.064 99.4316C349.103 96.8007 346.232 94.8827 344.514 96.3919C345.908 95.167 348.004 95.2097 349.739 96.4984L364.721 107.626C366.296 108.795 367.279 110.771 367.25 112.708L366.448 166.892C366.419 168.829 365.384 170.385 363.785 170.896L348.566 175.75Z" fill="#1F9CF0"/>
</g>
<mask id="mask9_647525_1337" style="mask-type:luminance" maskUnits="userSpaceOnUse" x="343" y="95" width="25" height="81">
<path d="M348.566 175.75C346.803 176.312 344.72 175.487 343.37 173.692C345.033 175.904 347.943 175.186 347.982 172.556L349.064 99.4316C349.103 96.8007 346.232 94.8827 344.514 96.3919C345.908 95.167 348.004 95.2097 349.739 96.4984L364.721 107.626C366.296 108.795 367.279 110.771 367.25 112.708L366.448 166.892C366.419 168.829 365.384 170.385 363.785 170.896L348.566 175.75Z" fill="white"/>
</mask>
<g mask="url(#mask9_647525_1337)">
<path d="M367.443 99.677L294.409 84.5085L293.222 164.754L366.255 179.922L367.443 99.677Z" fill="url(#paint7_linear_647525_1337)"/>
<path d="M367.443 99.677L294.409 84.5085L293.222 164.754L366.255 179.922L367.443 99.677Z" fill="url(#paint8_linear_647525_1337)"/>
</g>
</g>
<defs>
<filter id="filter0_dd_647525_1337" x="209.886" y="53.5354" width="201.365" height="208.42" filterUnits="userSpaceOnUse" color-interpolation-filters="sRGB">
<feFlood flood-opacity="0" result="BackgroundImageFix"/>
<feColorMatrix in="SourceAlpha" type="matrix" values="0 0 0 0 0 0 0 0 0 0 0 0 0 0 0 0 0 0 127 0" result="hardAlpha"/>
<feOffset dx="-12" dy="12"/>
<feGaussianBlur stdDeviation="11.5"/>
<feColorMatrix type="matrix" values="0 0 0 0 0.00286458 0 0 0 0 0.0486406 0 0 0 0 0.1375 0 0 0 0.337821 0"/>
<feBlend mode="normal" in2="BackgroundImageFix" result="effect1_dropShadow_647525_1337"/>
<feColorMatrix in="SourceAlpha" type="matrix" values="0 0 0 0 0 0 0 0 0 0 0 0 0 0 0 0 0 0 127 0" result="hardAlpha"/>
<feOffset dx="-20" dy="22"/>
<feGaussianBlur stdDeviation="32"/>
<feColorMatrix type="matrix" values="0 0 0 0 0 0 0 0 0 0.0845 0 0 0 0 0.1625 0 0 0 0.5 0"/>
<feBlend mode="normal" in2="effect1_dropShadow_647525_1337" result="effect2_dropShadow_647525_1337"/>
<feBlend mode="normal" in="SourceGraphic" in2="effect2_dropShadow_647525_1337" result="shape"/>
</filter>
<filter id="filter1_dddd_647525_1337" x="276.619" y="80.2205" width="119.635" height="109.597" filterUnits="userSpaceOnUse" color-interpolation-filters="sRGB">
<feFlood flood-opacity="0" result="BackgroundImageFix"/>
<feColorMatrix in="SourceAlpha" type="matrix" values="0 0 0 0 0 0 0 0 0 0 0 0 0 0 0 0 0 0 127 0" result="hardAlpha"/>
<feOffset dx="2" dy="2"/>
<feGaussianBlur stdDeviation="8"/>
<feComposite in2="hardAlpha" operator="out"/>
<feColorMatrix type="matrix" values="0 0 0 0 0 0 0 0 0 0 0 0 0 0 0 0 0 0 0.306543 0"/>
<feBlend mode="normal" in2="BackgroundImageFix" result="effect1_dropShadow_647525_1337"/>
<feColorMatrix in="SourceAlpha" type="matrix" values="0 0 0 0 0 0 0 0 0 0 0 0 0 0 0 0 0 0 127 0" result="hardAlpha"/>
<feOffset dx="6" dy="20"/>
<feGaussianBlur stdDeviation="11.5"/>
<feComposite in2="hardAlpha" operator="out"/>
<feColorMatrix type="matrix" values="0 0 0 0 0 0 0 0 0 0 0 0 0 0 0 0 0 0 0.279748 0"/>
<feBlend mode="normal" in2="effect1_dropShadow_647525_1337" result="effect2_dropShadow_647525_1337"/>
<feColorMatrix in="SourceAlpha" type="matrix" values="0 0 0 0 0 0 0 0 0 0 0 0 0 0 0 0 0 0 127 0" result="hardAlpha"/>
<feOffset dy="-2"/>
<feGaussianBlur stdDeviation="1.5"/>
<feComposite in2="hardAlpha" operator="out"/>
<feColorMatrix type="matrix" values="0 0 0 0 1 0 0 0 0 1 0 0 0 0 1 0 0 0 0.614012 0"/>
<feBlend mode="normal" in2="effect2_dropShadow_647525_1337" result="effect3_dropShadow_647525_1337"/>
<feColorMatrix in="SourceAlpha" type="matrix" values="0 0 0 0 0 0 0 0 0 0 0 0 0 0 0 0 0 0 127 0" result="hardAlpha"/>
<feOffset dx="-4" dy="-4"/>
<feGaussianBlur stdDeviation="5.5"/>
<feComposite in2="hardAlpha" operator="out"/>
<feColorMatrix type="matrix" values="0 0 0 0 1 0 0 0 0 1 0 0 0 0 1 0 0 0 0.173997 0"/>
<feBlend mode="normal" in2="effect3_dropShadow_647525_1337" result="effect4_dropShadow_647525_1337"/>
<feBlend mode="normal" in="SourceGraphic" in2="effect4_dropShadow_647525_1337" result="shape"/>
</filter>
<filter id="filter2_dddd_647525_1337" x="277.016" y="62.0796" width="118.436" height="128.861" filterUnits="userSpaceOnUse" color-interpolation-filters="sRGB">
<feFlood flood-opacity="0" result="BackgroundImageFix"/>
<feColorMatrix in="SourceAlpha" type="matrix" values="0 0 0 0 0 0 0 0 0 0 0 0 0 0 0 0 0 0 127 0" result="hardAlpha"/>
<feOffset dx="1" dy="-2"/>
<feGaussianBlur stdDeviation="8"/>
<feComposite in2="hardAlpha" operator="out"/>
<feColorMatrix type="matrix" values="0 0 0 0 0 0 0 0 0 0 0 0 0 0 0 0 0 0 0.308167 0"/>
<feBlend mode="normal" in2="BackgroundImageFix" result="effect1_dropShadow_647525_1337"/>
<feColorMatrix in="SourceAlpha" type="matrix" values="0 0 0 0 0 0 0 0 0 0 0 0 0 0 0 0 0 0 127 0" result="hardAlpha"/>
<feOffset dx="6" dy="-20"/>
<feGaussianBlur stdDeviation="11.5"/>
<feComposite in2="hardAlpha" operator="out"/>
<feColorMatrix type="matrix" values="0 0 0 0 0 0 0 0 0 0 0 0 0 0 0 0 0 0 0.279748 0"/>
<feBlend mode="normal" in2="effect1_dropShadow_647525_1337" result="effect2_dropShadow_647525_1337"/>
<feColorMatrix in="SourceAlpha" type="matrix" values="0 0 0 0 0 0 0 0 0 0 0 0 0 0 0 0 0 0 127 0" result="hardAlpha"/>
<feOffset dy="1"/>
<feGaussianBlur stdDeviation="1.5"/>
<feComposite in2="hardAlpha" operator="out"/>
<feColorMatrix type="matrix" values="0 0 0 0 1 0 0 0 0 1 0 0 0 0 1 0 0 0 0.614012 0"/>
<feBlend mode="normal" in2="effect2_dropShadow_647525_1337" result="effect3_dropShadow_647525_1337"/>
<feColorMatrix in="SourceAlpha" type="matrix" values="0 0 0 0 0 0 0 0 0 0 0 0 0 0 0 0 0 0 127 0" result="hardAlpha"/>
<feOffset dx="-4" dy="4"/>
<feGaussianBlur stdDeviation="5.5"/>
<feComposite in2="hardAlpha" operator="out"/>
<feColorMatrix type="matrix" values="0 0 0 0 1 0 0 0 0 1 0 0 0 0 1 0 0 0 0.173997 0"/>
<feBlend mode="normal" in2="effect3_dropShadow_647525_1337" result="effect4_dropShadow_647525_1337"/>
<feBlend mode="normal" in="SourceGraphic" in2="effect4_dropShadow_647525_1337" result="shape"/>
</filter>
<filter id="filter3_dd_647525_1337" x="340.37" y="92.5017" width="31.8805" height="87.4229" filterUnits="userSpaceOnUse" color-interpolation-filters="sRGB">
<feFlood flood-opacity="0" result="BackgroundImageFix"/>
<feColorMatrix in="SourceAlpha" type="matrix" values="0 0 0 0 0 0 0 0 0 0 0 0 0 0 0 0 0 0 127 0" result="hardAlpha"/>
<feOffset dy="1"/>
<feGaussianBlur stdDeviation="1.5"/>
<feComposite in2="hardAlpha" operator="out"/>
<feColorMatrix type="matrix" values="0 0 0 0 1 0 0 0 0 1 0 0 0 0 1 0 0 0 1 0"/>
<feBlend mode="normal" in2="BackgroundImageFix" result="effect1_dropShadow_647525_1337"/>
<feColorMatrix in="SourceAlpha" type="matrix" values="0 0 0 0 0 0 0 0 0 0 0 0 0 0 0 0 0 0 127 0" result="hardAlpha"/>
<feOffset dx="2"/>
<feGaussianBlur stdDeviation="1.5"/>
<feComposite in2="hardAlpha" operator="out"/>
<feColorMatrix type="matrix" values="0 0 0 0 1 0 0 0 0 1 0 0 0 0 1 0 0 0 0.379235 0"/>
<feBlend mode="normal" in2="effect1_dropShadow_647525_1337" result="effect2_dropShadow_647525_1337"/>
<feBlend mode="normal" in="SourceGraphic" in2="effect2_dropShadow_647525_1337" result="shape"/>
</filter>
<linearGradient id="paint0_linear_647525_1337" x1="341.498" y1="442.431" x2="344.313" y2="445.511" gradientUnits="userSpaceOnUse">
<stop stop-opacity="0.13"/>
<stop offset="0.994" stop-opacity="0"/>
</linearGradient>
<radialGradient id="paint1_radial_647525_1337" cx="0" cy="0" r="1" gradientUnits="userSpaceOnUse" gradientTransform="translate(316.818 459.365) rotate(53.8277) scale(8.4002 6.90519)">
<stop offset="0.5" stop-opacity="0.13"/>
<stop offset="0.994" stop-opacity="0"/>
</radialGradient>
<radialGradient id="paint2_radial_647525_1337" cx="0" cy="0" r="1" gradientUnits="userSpaceOnUse" gradientTransform="translate(361.247 418.76) rotate(-126.172) scale(8.4002 6.90519)">
<stop offset="0.5" stop-opacity="0.13"/>
<stop offset="0.994" stop-opacity="0"/>
</radialGradient>
<linearGradient id="paint3_linear_647525_1337" x1="301.215" y1="443.781" x2="298.429" y2="445.818" gradientUnits="userSpaceOnUse">
<stop stop-opacity="0.13"/>
<stop offset="0.994" stop-opacity="0"/>
</linearGradient>
<radialGradient id="paint4_radial_647525_1337" cx="0" cy="0" r="1" gradientUnits="userSpaceOnUse" gradientTransform="translate(290.675 423.609) rotate(-42.4254) scale(6.94547 8.34896)">
<stop offset="0.5" stop-opacity="0.13"/>
<stop offset="0.994" stop-opacity="0"/>
</radialGradient>
<linearGradient id="paint5_linear_647525_1337" x1="308.333" y1="453.611" x2="364.993" y2="412.184" gradientUnits="userSpaceOnUse">
<stop stop-color="#2987E6"/>
<stop offset="0.994" stop-color="#58C1F5"/>
</linearGradient>
<linearGradient id="paint6_linear_647525_1337" x1="327.711" y1="158.42" x2="360.579" y2="158.907" gradientUnits="userSpaceOnUse">
<stop stop-color="#0085D1" stop-opacity="0.01"/>
<stop offset="1" stop-color="#021E41"/>
</linearGradient>
<linearGradient id="paint7_linear_647525_1337" x1="354.121" y1="150.621" x2="378.625" y2="150.983" gradientUnits="userSpaceOnUse">
<stop stop-color="#0078B8" stop-opacity="0.01"/>
<stop offset="1" stop-color="#002032"/>
</linearGradient>
<linearGradient id="paint8_linear_647525_1337" x1="348.534" y1="144.263" x2="359.928" y2="144.431" gradientUnits="userSpaceOnUse">
<stop stop-color="#B4D7FF" stop-opacity="0.185418"/>
<stop offset="1" stop-color="#006AA8" stop-opacity="0.01"/>
</linearGradient>
</defs>
</svg>
