<svg width="390" height="582" viewBox="0 0 390 582" fill="none" xmlns="http://www.w3.org/2000/svg">
<g clip-path="url(#clip0_647525_1568)">
<path d="M192.286 399.45C265.155 399.45 324.226 368.467 324.226 330.247C324.226 292.027 265.155 261.044 192.286 261.044C119.418 261.044 60.3469 292.027 60.3469 330.247C60.3469 368.467 119.418 399.45 192.286 399.45Z" fill="#8993BE"/>
<path fill-rule="evenodd" clip-rule="evenodd" d="M97.3983 371.222L111.858 297.466H145.293C159.752 298.377 166.982 305.66 166.982 318.409C166.982 340.263 149.812 353.011 134.449 352.1H118.184L114.569 371.222H97.3983ZM121.798 338.442L126.317 311.125H138.065C144.39 311.125 148.908 313.856 148.908 319.319C148.005 334.8 140.775 337.532 132.643 338.442H121.798ZM163.623 352.1L178.081 278.345H195.252L191.637 297.466H207.903C222.363 298.377 227.784 305.66 225.977 314.767L219.652 352.1H201.578L207.904 318.409C208.807 313.856 208.807 311.125 202.482 311.125H188.926L180.793 352.1H163.623ZM218.494 371.222L232.953 297.466H266.389C280.849 298.377 288.079 305.66 288.079 318.409C288.079 340.263 270.908 353.011 255.545 352.1H239.279L235.664 371.222H218.494ZM242.893 338.442L247.411 311.125H259.16C265.486 311.125 270.004 313.856 270.004 319.319C269.101 334.8 261.871 337.532 253.738 338.442H242.894H242.893Z" fill="#232531"/>
<path d="M372.431 241.393L297.006 261.598L221.58 241.393L204.175 53.7979H389.838L372.431 241.393Z" fill="#2062AF"/>
<path d="M297.005 68.9932V245.483L297.176 245.53L358.214 229.178L372.303 68.9932H297.005Z" fill="#3C9CD7"/>
<path d="M254.199 26.2365V15.0709H270.574V2.85303H241.918V37.3856H270.574V26.2365H254.199ZM300.03 15.0709H311.478V2.85303H282.82V15.0709C286.654 18.8853 288.653 20.711 294.198 26.2277C290.957 26.2277 282.82 26.2387 282.82 26.2387V37.3856H311.478V26.2365L300.03 15.0709ZM340.648 15.0709H352.095V2.85303H323.436V15.0709C327.27 18.8853 329.271 20.711 334.816 26.2277C331.575 26.2277 323.436 26.2387 323.436 26.2387V37.3856H352.096V26.2365L340.648 15.0709Z" fill="#262626"/>
<path d="M296.938 115.899L242.954 138.267L244.744 160.412L296.938 138.211L352.459 114.595L354.761 91.9404L296.938 115.899Z" fill="#262626"/>
<path d="M242.953 138.267L244.744 160.412L296.938 138.21V115.899L242.953 138.267Z" fill="url(#paint0_linear_647525_1568)"/>
<path d="M354.761 91.9409L296.938 115.899V138.21L352.459 114.594L354.761 91.9409Z" fill="url(#paint1_linear_647525_1568)"/>
<path d="M243.037 138.267L244.827 160.413L324.912 160.667L323.121 190.194L296.768 197.575L271.436 191.211L269.901 172.884H246.362L249.433 208.266L297.024 222.265L344.357 208.52L350.498 138.267H243.037Z" fill="url(#paint2_linear_647525_1568)"/>
<path opacity="0.05" d="M296.938 138.267H242.954L244.744 160.413L296.938 160.579V138.267ZM296.938 197.504L296.682 197.575L271.353 191.212L269.818 172.885H246.28L249.35 208.266L296.938 222.266V197.504Z" fill="white"/>
<path d="M238.092 91.9409H354.761L352.459 114.595H240.907L238.092 91.9409Z" fill="url(#paint3_linear_647525_1568)"/>
<path opacity="0.05" d="M296.938 91.9409H238.092L240.907 114.595H296.938V91.9409Z" fill="white"/>
<path d="M16.4963 0H28.686V12.2474H39.8367V0H52.027V37.0882H39.8373V24.6689H28.6866V37.0882H16.4974L16.4963 0ZM68.0568 12.299H57.3261V0H90.9842V12.299H80.2481V37.0882H68.0579L68.0568 12.299ZM96.3255 0H109.036L116.854 13.0317L124.666 0H137.381V37.0882H125.241V18.7053L116.855 31.8922H116.646L108.253 18.7053V37.0882H96.326L96.3255 0ZM143.447 0H155.641V24.829H172.783V37.0882H143.447V0Z" fill="#262626"/>
<path d="M20.3934 239.228L5.02576 53.127L188.555 53.5009L172.305 239.228L97.4831 260.696L20.3934 239.228Z" fill="#E34F26"/>
<path d="M97.4829 242.723V70.8506L173.062 71.0999L159.584 224.873L97.4829 242.723Z" fill="#EF652A"/>
<path d="M152.278 113.789L154.419 91.0713H38.1542L44.5777 160.719H124.817L121.67 190.425L95.9734 197.289L69.8988 189.8L68.5135 172.077H45.4598L48.6094 208.274L95.9719 221.379L143.712 208.274L150.135 137.628H65.8671L63.4738 113.789H152.278Z" fill="#262626"/>
<path d="M119.134 413.677H288.325V582H119.134V413.677Z" fill="#F0DB4F"/>
<path d="M274.478 541.856C273.239 534.176 268.205 527.727 253.297 521.711C248.118 519.343 242.344 517.647 240.623 513.743C240.012 511.471 239.932 510.191 240.318 508.815C241.428 504.351 246.783 502.959 251.029 504.239C253.763 505.151 256.352 507.247 257.912 510.591C265.214 505.887 265.198 505.919 270.296 502.687C268.431 499.807 267.433 498.479 266.211 497.247C261.821 492.367 255.838 489.855 246.268 490.047C244.612 490.255 242.939 490.479 241.283 490.687C236.506 491.887 231.955 494.383 229.285 497.727C221.276 506.767 223.56 522.591 233.306 529.104C242.907 536.272 257.012 537.904 258.813 544.608C260.566 552.816 252.75 555.472 244.982 554.528C239.256 553.344 236.072 550.448 232.63 545.184C226.294 548.832 226.294 548.832 219.78 552.56C221.324 555.92 222.948 557.44 225.538 560.352C237.793 572.721 268.463 572.113 273.963 553.392C274.188 552.752 275.668 548.464 274.478 541.856ZM211.111 491.039H195.286C195.286 504.639 195.222 518.143 195.222 531.744C195.222 540.4 195.672 548.336 194.257 550.768C191.941 555.552 185.942 554.96 183.208 554.032C180.426 552.672 179.01 550.736 177.37 548C176.92 547.216 176.582 546.608 176.469 546.56C172.175 549.168 167.897 551.792 163.603 554.4C165.742 558.768 168.894 562.56 172.931 565.024C178.962 568.624 187.068 569.728 195.543 567.792C201.06 566.192 205.82 562.88 208.313 557.84C211.916 551.232 211.144 543.232 211.111 534.384C211.192 519.951 211.111 505.519 211.111 491.039Z" fill="#323330"/>
</g>
<defs>
<linearGradient id="paint0_linear_647525_1568" x1="269.946" y1="160.413" x2="269.946" y2="115.899" gradientUnits="userSpaceOnUse">
<stop offset="0.387" stop-color="#D1D3D4" stop-opacity="0"/>
<stop offset="1" stop-color="#D1D3D4"/>
</linearGradient>
<linearGradient id="paint1_linear_647525_1568" x1="325.849" y1="138.211" x2="325.849" y2="91.9415" gradientUnits="userSpaceOnUse">
<stop offset="0.387" stop-color="#D1D3D4" stop-opacity="0"/>
<stop offset="1" stop-color="#D1D3D4"/>
</linearGradient>
<linearGradient id="paint2_linear_647525_1568" x1="243.037" y1="180.267" x2="350.498" y2="180.267" gradientUnits="userSpaceOnUse">
<stop stop-color="#E8E7E5"/>
<stop offset="1" stop-color="white"/>
</linearGradient>
<linearGradient id="paint3_linear_647525_1568" x1="238.092" y1="103.268" x2="354.76" y2="103.268" gradientUnits="userSpaceOnUse">
<stop stop-color="#E8E7E5"/>
<stop offset="1" stop-color="white"/>
</linearGradient>
<clipPath id="clip0_647525_1568">
<rect width="390" height="582" fill="white"/>
</clipPath>
</defs>
</svg>
